<mxfile host="app.diagrams.net" modified="2024-04-15T01:25:38.601Z" agent="Mozilla/5.0 (Windows NT 10.0; Win64; x64) AppleWebKit/537.36 (KHTML, like Gecko) Chrome/123.0.0.0 Safari/537.36" etag="ePMIfzaT0eLDi9ando5a" version="24.2.5" type="device">
  <diagram name="PÃ¡gina-1" id="QmQAAPrOhU4GMJox6sLI">
    <mxGraphModel dx="2514" dy="878" grid="1" gridSize="10" guides="1" tooltips="1" connect="1" arrows="1" fold="1" page="1" pageScale="1" pageWidth="827" pageHeight="1169" math="0" shadow="0">
      <root>
        <mxCell id="0" />
        <mxCell id="1" parent="0" />
        <mxCell id="-sqe8g5yzWZDZ1aWcnI--1" style="edgeStyle=orthogonalEdgeStyle;rounded=0;orthogonalLoop=1;jettySize=auto;html=1;exitX=1;exitY=1;exitDx=0;exitDy=0;entryX=0.5;entryY=1;entryDx=0;entryDy=0;endArrow=none;endFill=0;" parent="1" source="-sqe8g5yzWZDZ1aWcnI--3" target="-sqe8g5yzWZDZ1aWcnI--15" edge="1">
          <mxGeometry relative="1" as="geometry" />
        </mxCell>
        <mxCell id="-sqe8g5yzWZDZ1aWcnI--2" style="edgeStyle=orthogonalEdgeStyle;rounded=0;orthogonalLoop=1;jettySize=auto;html=1;exitX=0;exitY=0.5;exitDx=0;exitDy=0;entryX=1;entryY=0.5;entryDx=0;entryDy=0;endArrow=none;endFill=0;" parent="1" source="-sqe8g5yzWZDZ1aWcnI--3" target="-sqe8g5yzWZDZ1aWcnI--8" edge="1">
          <mxGeometry relative="1" as="geometry" />
        </mxCell>
        <mxCell id="-sqe8g5yzWZDZ1aWcnI--3" value="User" style="whiteSpace=wrap;html=1;align=center;" parent="1" vertex="1">
          <mxGeometry x="272" y="237" width="100" height="40" as="geometry" />
        </mxCell>
        <mxCell id="-sqe8g5yzWZDZ1aWcnI--4" style="edgeStyle=orthogonalEdgeStyle;rounded=0;orthogonalLoop=1;jettySize=auto;html=1;exitX=1;exitY=0.5;exitDx=0;exitDy=0;entryX=0;entryY=0.5;entryDx=0;entryDy=0;endArrow=none;endFill=0;" parent="1" source="-sqe8g5yzWZDZ1aWcnI--5" target="-sqe8g5yzWZDZ1aWcnI--3" edge="1">
          <mxGeometry relative="1" as="geometry" />
        </mxCell>
        <mxCell id="-sqe8g5yzWZDZ1aWcnI--5" value="ID" style="ellipse;whiteSpace=wrap;html=1;align=center;fontStyle=4;" parent="1" vertex="1">
          <mxGeometry x="187" y="187" width="33" height="20" as="geometry" />
        </mxCell>
        <mxCell id="-sqe8g5yzWZDZ1aWcnI--6" style="edgeStyle=orthogonalEdgeStyle;rounded=0;orthogonalLoop=1;jettySize=auto;html=1;exitX=1;exitY=0.5;exitDx=0;exitDy=0;entryX=0;entryY=0.5;entryDx=0;entryDy=0;endArrow=none;endFill=0;" parent="1" source="-sqe8g5yzWZDZ1aWcnI--7" target="-sqe8g5yzWZDZ1aWcnI--3" edge="1">
          <mxGeometry relative="1" as="geometry" />
        </mxCell>
        <mxCell id="-sqe8g5yzWZDZ1aWcnI--7" value="Name" style="ellipse;whiteSpace=wrap;html=1;align=center;" parent="1" vertex="1">
          <mxGeometry x="167" y="217" width="53" height="20" as="geometry" />
        </mxCell>
        <mxCell id="-sqe8g5yzWZDZ1aWcnI--8" value="E-Mail" style="ellipse;whiteSpace=wrap;html=1;align=center;" parent="1" vertex="1">
          <mxGeometry x="157" y="248" width="63" height="18" as="geometry" />
        </mxCell>
        <mxCell id="-sqe8g5yzWZDZ1aWcnI--11" style="edgeStyle=orthogonalEdgeStyle;rounded=0;orthogonalLoop=1;jettySize=auto;html=1;exitX=1;exitY=0.5;exitDx=0;exitDy=0;entryX=0;entryY=0.5;entryDx=0;entryDy=0;endArrow=none;endFill=0;" parent="1" source="-sqe8g5yzWZDZ1aWcnI--12" target="-sqe8g5yzWZDZ1aWcnI--3" edge="1">
          <mxGeometry relative="1" as="geometry" />
        </mxCell>
        <mxCell id="-sqe8g5yzWZDZ1aWcnI--12" value="Password" style="ellipse;whiteSpace=wrap;html=1;align=center;" parent="1" vertex="1">
          <mxGeometry x="142" y="275" width="78" height="20" as="geometry" />
        </mxCell>
        <mxCell id="-sqe8g5yzWZDZ1aWcnI--14" style="edgeStyle=orthogonalEdgeStyle;rounded=0;orthogonalLoop=1;jettySize=auto;html=1;exitX=0.5;exitY=0;exitDx=0;exitDy=0;entryX=1;entryY=0;entryDx=0;entryDy=0;endArrow=none;endFill=0;" parent="1" source="-sqe8g5yzWZDZ1aWcnI--15" target="-sqe8g5yzWZDZ1aWcnI--3" edge="1">
          <mxGeometry relative="1" as="geometry" />
        </mxCell>
        <mxCell id="-sqe8g5yzWZDZ1aWcnI--15" value="Make friends" style="shape=associativeEntity;whiteSpace=wrap;html=1;align=center;" parent="1" vertex="1">
          <mxGeometry x="517" y="232" width="90" height="50" as="geometry" />
        </mxCell>
        <mxCell id="-sqe8g5yzWZDZ1aWcnI--16" value="N" style="text;html=1;align=center;verticalAlign=middle;resizable=0;points=[];autosize=1;strokeColor=none;fillColor=none;" parent="1" vertex="1">
          <mxGeometry x="372" y="272" width="30" height="30" as="geometry" />
        </mxCell>
        <mxCell id="-sqe8g5yzWZDZ1aWcnI--17" value="N" style="text;html=1;align=center;verticalAlign=middle;resizable=0;points=[];autosize=1;strokeColor=none;fillColor=none;" parent="1" vertex="1">
          <mxGeometry x="372" y="210" width="30" height="30" as="geometry" />
        </mxCell>
        <mxCell id="-sqe8g5yzWZDZ1aWcnI--18" style="edgeStyle=orthogonalEdgeStyle;rounded=0;orthogonalLoop=1;jettySize=auto;html=1;exitX=0;exitY=0.5;exitDx=0;exitDy=0;entryX=1;entryY=0.5;entryDx=0;entryDy=0;endArrow=none;endFill=0;" parent="1" source="-sqe8g5yzWZDZ1aWcnI--19" target="-sqe8g5yzWZDZ1aWcnI--15" edge="1">
          <mxGeometry relative="1" as="geometry" />
        </mxCell>
        <mxCell id="-sqe8g5yzWZDZ1aWcnI--19" value="Send date" style="ellipse;whiteSpace=wrap;html=1;align=center;" parent="1" vertex="1">
          <mxGeometry x="697" y="243" width="100" height="28" as="geometry" />
        </mxCell>
        <mxCell id="-sqe8g5yzWZDZ1aWcnI--20" style="edgeStyle=orthogonalEdgeStyle;rounded=0;orthogonalLoop=1;jettySize=auto;html=1;exitX=0;exitY=0.5;exitDx=0;exitDy=0;entryX=1;entryY=0.5;entryDx=0;entryDy=0;endArrow=none;endFill=0;" parent="1" source="-sqe8g5yzWZDZ1aWcnI--21" target="-sqe8g5yzWZDZ1aWcnI--15" edge="1">
          <mxGeometry relative="1" as="geometry" />
        </mxCell>
        <mxCell id="-sqe8g5yzWZDZ1aWcnI--21" value="ID" style="ellipse;whiteSpace=wrap;html=1;align=center;fontStyle=4;" parent="1" vertex="1">
          <mxGeometry x="697" y="215" width="45" height="22" as="geometry" />
        </mxCell>
        <mxCell id="-sqe8g5yzWZDZ1aWcnI--22" style="edgeStyle=orthogonalEdgeStyle;rounded=0;orthogonalLoop=1;jettySize=auto;html=1;exitX=0;exitY=0.5;exitDx=0;exitDy=0;entryX=1;entryY=0.5;entryDx=0;entryDy=0;endArrow=none;endFill=0;" parent="1" source="-sqe8g5yzWZDZ1aWcnI--23" target="-sqe8g5yzWZDZ1aWcnI--15" edge="1">
          <mxGeometry relative="1" as="geometry">
            <Array as="points">
              <mxPoint x="652" y="290" />
              <mxPoint x="652" y="257" />
            </Array>
          </mxGeometry>
        </mxCell>
        <mxCell id="-sqe8g5yzWZDZ1aWcnI--23" value="Receive date" style="ellipse;whiteSpace=wrap;html=1;align=center;" parent="1" vertex="1">
          <mxGeometry x="697" y="275" width="100" height="30" as="geometry" />
        </mxCell>
        <mxCell id="-sqe8g5yzWZDZ1aWcnI--24" value="PK" style="text;html=1;align=center;verticalAlign=middle;resizable=0;points=[];autosize=1;strokeColor=none;fillColor=none;" parent="1" vertex="1">
          <mxGeometry x="147" y="180" width="40" height="30" as="geometry" />
        </mxCell>
        <mxCell id="-sqe8g5yzWZDZ1aWcnI--25" value="PK" style="text;html=1;align=center;verticalAlign=middle;resizable=0;points=[];autosize=1;strokeColor=none;fillColor=none;" parent="1" vertex="1">
          <mxGeometry x="742" y="207" width="40" height="30" as="geometry" />
        </mxCell>
        <mxCell id="-sqe8g5yzWZDZ1aWcnI--26" value="M" style="text;html=1;align=center;verticalAlign=middle;resizable=0;points=[];autosize=1;strokeColor=none;fillColor=none;" parent="1" vertex="1">
          <mxGeometry x="137" y="210" width="30" height="30" as="geometry" />
        </mxCell>
        <mxCell id="-sqe8g5yzWZDZ1aWcnI--27" value="M" style="text;html=1;align=center;verticalAlign=middle;resizable=0;points=[];autosize=1;strokeColor=none;fillColor=none;" parent="1" vertex="1">
          <mxGeometry x="117" y="266" width="30" height="30" as="geometry" />
        </mxCell>
        <mxCell id="-sqe8g5yzWZDZ1aWcnI--29" value="M" style="text;html=1;align=center;verticalAlign=middle;resizable=0;points=[];autosize=1;strokeColor=none;fillColor=none;" parent="1" vertex="1">
          <mxGeometry x="797" y="243" width="30" height="30" as="geometry" />
        </mxCell>
        <mxCell id="-sqe8g5yzWZDZ1aWcnI--30" value="M" style="text;html=1;align=center;verticalAlign=middle;resizable=0;points=[];autosize=1;strokeColor=none;fillColor=none;" parent="1" vertex="1">
          <mxGeometry x="797" y="272" width="30" height="30" as="geometry" />
        </mxCell>
        <mxCell id="tt112cmXK7fdP1q24PZr-19" style="edgeStyle=orthogonalEdgeStyle;rounded=0;orthogonalLoop=1;jettySize=auto;html=1;exitX=0;exitY=0.5;exitDx=0;exitDy=0;entryX=1;entryY=0.5;entryDx=0;entryDy=0;endArrow=none;endFill=0;" edge="1" parent="1" source="-sqe8g5yzWZDZ1aWcnI--32" target="-sqe8g5yzWZDZ1aWcnI--15">
          <mxGeometry relative="1" as="geometry" />
        </mxCell>
        <mxCell id="-sqe8g5yzWZDZ1aWcnI--32" value="Acepted_date" style="ellipse;whiteSpace=wrap;html=1;align=center;" parent="1" vertex="1">
          <mxGeometry x="697" y="307" width="100" height="30" as="geometry" />
        </mxCell>
        <mxCell id="-sqe8g5yzWZDZ1aWcnI--33" value="M" style="text;html=1;align=center;verticalAlign=middle;resizable=0;points=[];autosize=1;strokeColor=none;fillColor=none;" parent="1" vertex="1">
          <mxGeometry x="797" y="307" width="30" height="30" as="geometry" />
        </mxCell>
        <mxCell id="-sqe8g5yzWZDZ1aWcnI--66" style="edgeStyle=orthogonalEdgeStyle;rounded=0;orthogonalLoop=1;jettySize=auto;html=1;entryX=0;entryY=0.5;entryDx=0;entryDy=0;endArrow=none;endFill=0;" parent="1" source="-sqe8g5yzWZDZ1aWcnI--35" target="-sqe8g5yzWZDZ1aWcnI--39" edge="1">
          <mxGeometry relative="1" as="geometry" />
        </mxCell>
        <mxCell id="-sqe8g5yzWZDZ1aWcnI--68" style="edgeStyle=orthogonalEdgeStyle;rounded=0;orthogonalLoop=1;jettySize=auto;html=1;entryX=0;entryY=0.5;entryDx=0;entryDy=0;endArrow=none;endFill=0;" parent="1" source="-sqe8g5yzWZDZ1aWcnI--35" target="-sqe8g5yzWZDZ1aWcnI--41" edge="1">
          <mxGeometry relative="1" as="geometry" />
        </mxCell>
        <mxCell id="-sqe8g5yzWZDZ1aWcnI--70" style="edgeStyle=orthogonalEdgeStyle;rounded=0;orthogonalLoop=1;jettySize=auto;html=1;entryX=0;entryY=0.5;entryDx=0;entryDy=0;endArrow=none;endFill=0;" parent="1" source="-sqe8g5yzWZDZ1aWcnI--35" target="-sqe8g5yzWZDZ1aWcnI--42" edge="1">
          <mxGeometry relative="1" as="geometry" />
        </mxCell>
        <mxCell id="-sqe8g5yzWZDZ1aWcnI--71" style="edgeStyle=orthogonalEdgeStyle;rounded=0;orthogonalLoop=1;jettySize=auto;html=1;entryX=0;entryY=0.5;entryDx=0;entryDy=0;endArrow=none;endFill=0;" parent="1" source="-sqe8g5yzWZDZ1aWcnI--35" target="-sqe8g5yzWZDZ1aWcnI--54" edge="1">
          <mxGeometry relative="1" as="geometry" />
        </mxCell>
        <mxCell id="-sqe8g5yzWZDZ1aWcnI--73" style="edgeStyle=orthogonalEdgeStyle;rounded=0;orthogonalLoop=1;jettySize=auto;html=1;entryX=0;entryY=0.5;entryDx=0;entryDy=0;endArrow=none;endFill=0;" parent="1" source="-sqe8g5yzWZDZ1aWcnI--35" target="-sqe8g5yzWZDZ1aWcnI--55" edge="1">
          <mxGeometry relative="1" as="geometry" />
        </mxCell>
        <mxCell id="tt112cmXK7fdP1q24PZr-34" style="edgeStyle=orthogonalEdgeStyle;rounded=0;orthogonalLoop=1;jettySize=auto;html=1;exitX=0.5;exitY=1;exitDx=0;exitDy=0;entryX=1;entryY=0.5;entryDx=0;entryDy=0;endArrow=none;endFill=0;" edge="1" parent="1" source="-sqe8g5yzWZDZ1aWcnI--35" target="tt112cmXK7fdP1q24PZr-32">
          <mxGeometry relative="1" as="geometry" />
        </mxCell>
        <mxCell id="-sqe8g5yzWZDZ1aWcnI--35" value="Event" style="whiteSpace=wrap;html=1;align=center;" parent="1" vertex="1">
          <mxGeometry x="466" y="860" width="100" height="40" as="geometry" />
        </mxCell>
        <mxCell id="-sqe8g5yzWZDZ1aWcnI--39" value="&lt;u&gt;ID&lt;/u&gt;" style="ellipse;whiteSpace=wrap;html=1;align=center;" parent="1" vertex="1">
          <mxGeometry x="632" y="865" width="40" height="30" as="geometry" />
        </mxCell>
        <mxCell id="-sqe8g5yzWZDZ1aWcnI--67" style="edgeStyle=orthogonalEdgeStyle;rounded=0;orthogonalLoop=1;jettySize=auto;html=1;entryX=1;entryY=0.5;entryDx=0;entryDy=0;endArrow=none;endFill=0;" parent="1" source="-sqe8g5yzWZDZ1aWcnI--40" target="-sqe8g5yzWZDZ1aWcnI--35" edge="1">
          <mxGeometry relative="1" as="geometry" />
        </mxCell>
        <mxCell id="-sqe8g5yzWZDZ1aWcnI--40" value="Name" style="ellipse;whiteSpace=wrap;html=1;align=center;fontStyle=0" parent="1" vertex="1">
          <mxGeometry x="632" y="900" width="80" height="30" as="geometry" />
        </mxCell>
        <mxCell id="-sqe8g5yzWZDZ1aWcnI--41" value="Description" style="ellipse;whiteSpace=wrap;html=1;align=center;" parent="1" vertex="1">
          <mxGeometry x="632" y="935" width="80" height="30" as="geometry" />
        </mxCell>
        <mxCell id="-sqe8g5yzWZDZ1aWcnI--42" value="Photo" style="ellipse;shape=doubleEllipse;margin=3;whiteSpace=wrap;html=1;align=center;" parent="1" vertex="1">
          <mxGeometry x="632" y="970" width="80" height="30" as="geometry" />
        </mxCell>
        <mxCell id="-sqe8g5yzWZDZ1aWcnI--75" style="edgeStyle=orthogonalEdgeStyle;rounded=0;orthogonalLoop=1;jettySize=auto;html=1;entryX=1;entryY=0.5;entryDx=0;entryDy=0;endArrow=none;endFill=0;" parent="1" source="-sqe8g5yzWZDZ1aWcnI--46" target="-sqe8g5yzWZDZ1aWcnI--35" edge="1">
          <mxGeometry relative="1" as="geometry" />
        </mxCell>
        <mxCell id="-sqe8g5yzWZDZ1aWcnI--46" value="City" style="ellipse;whiteSpace=wrap;html=1;align=center;" parent="1" vertex="1">
          <mxGeometry x="634" y="1050" width="80" height="30" as="geometry" />
        </mxCell>
        <mxCell id="-sqe8g5yzWZDZ1aWcnI--76" style="edgeStyle=orthogonalEdgeStyle;rounded=0;orthogonalLoop=1;jettySize=auto;html=1;entryX=1;entryY=0.5;entryDx=0;entryDy=0;endArrow=none;endFill=0;" parent="1" source="-sqe8g5yzWZDZ1aWcnI--48" target="-sqe8g5yzWZDZ1aWcnI--35" edge="1">
          <mxGeometry relative="1" as="geometry" />
        </mxCell>
        <mxCell id="-sqe8g5yzWZDZ1aWcnI--48" value="Neighborhood" style="ellipse;whiteSpace=wrap;html=1;align=center;" parent="1" vertex="1">
          <mxGeometry x="632" y="1090" width="90" height="30" as="geometry" />
        </mxCell>
        <mxCell id="-sqe8g5yzWZDZ1aWcnI--77" style="edgeStyle=orthogonalEdgeStyle;rounded=0;orthogonalLoop=1;jettySize=auto;html=1;entryX=1;entryY=0.5;entryDx=0;entryDy=0;endArrow=none;endFill=0;" parent="1" source="-sqe8g5yzWZDZ1aWcnI--50" target="-sqe8g5yzWZDZ1aWcnI--35" edge="1">
          <mxGeometry relative="1" as="geometry" />
        </mxCell>
        <mxCell id="-sqe8g5yzWZDZ1aWcnI--50" value="Number" style="ellipse;whiteSpace=wrap;html=1;align=center;" parent="1" vertex="1">
          <mxGeometry x="632.5" y="1130" width="80" height="30" as="geometry" />
        </mxCell>
        <mxCell id="-sqe8g5yzWZDZ1aWcnI--78" style="edgeStyle=orthogonalEdgeStyle;rounded=0;orthogonalLoop=1;jettySize=auto;html=1;entryX=1;entryY=0.5;entryDx=0;entryDy=0;endArrow=none;endFill=0;" parent="1" source="-sqe8g5yzWZDZ1aWcnI--52" target="-sqe8g5yzWZDZ1aWcnI--35" edge="1">
          <mxGeometry relative="1" as="geometry" />
        </mxCell>
        <mxCell id="-sqe8g5yzWZDZ1aWcnI--52" value="Street" style="ellipse;whiteSpace=wrap;html=1;align=center;" parent="1" vertex="1">
          <mxGeometry x="632" y="1170" width="80" height="30" as="geometry" />
        </mxCell>
        <mxCell id="-sqe8g5yzWZDZ1aWcnI--74" style="edgeStyle=orthogonalEdgeStyle;rounded=0;orthogonalLoop=1;jettySize=auto;html=1;entryX=1;entryY=0.5;entryDx=0;entryDy=0;endArrow=none;endFill=0;" parent="1" source="-sqe8g5yzWZDZ1aWcnI--53" target="-sqe8g5yzWZDZ1aWcnI--35" edge="1">
          <mxGeometry relative="1" as="geometry" />
        </mxCell>
        <mxCell id="-sqe8g5yzWZDZ1aWcnI--53" value="State" style="ellipse;whiteSpace=wrap;html=1;align=center;" parent="1" vertex="1">
          <mxGeometry x="632.5" y="1010" width="80" height="30" as="geometry" />
        </mxCell>
        <mxCell id="-sqe8g5yzWZDZ1aWcnI--54" value="Start date" style="ellipse;whiteSpace=wrap;html=1;align=center;" parent="1" vertex="1">
          <mxGeometry x="632" y="1210" width="80" height="30" as="geometry" />
        </mxCell>
        <mxCell id="-sqe8g5yzWZDZ1aWcnI--55" value="End date" style="ellipse;whiteSpace=wrap;html=1;align=center;" parent="1" vertex="1">
          <mxGeometry x="632" y="1250" width="80" height="30" as="geometry" />
        </mxCell>
        <mxCell id="-sqe8g5yzWZDZ1aWcnI--56" value="PK" style="text;html=1;align=center;verticalAlign=middle;resizable=0;points=[];autosize=1;strokeColor=none;fillColor=none;" parent="1" vertex="1">
          <mxGeometry x="669" y="865" width="40" height="30" as="geometry" />
        </mxCell>
        <mxCell id="-sqe8g5yzWZDZ1aWcnI--58" value="M" style="text;html=1;align=center;verticalAlign=middle;resizable=0;points=[];autosize=1;strokeColor=none;fillColor=none;" parent="1" vertex="1">
          <mxGeometry x="714" y="1250" width="30" height="30" as="geometry" />
        </mxCell>
        <mxCell id="-sqe8g5yzWZDZ1aWcnI--104" style="edgeStyle=orthogonalEdgeStyle;rounded=0;orthogonalLoop=1;jettySize=auto;html=1;exitX=0.5;exitY=1;exitDx=0;exitDy=0;entryX=0.5;entryY=0;entryDx=0;entryDy=0;endArrow=none;endFill=0;" parent="1" source="-sqe8g5yzWZDZ1aWcnI--105" target="-sqe8g5yzWZDZ1aWcnI--116" edge="1">
          <mxGeometry relative="1" as="geometry" />
        </mxCell>
        <mxCell id="-sqe8g5yzWZDZ1aWcnI--105" value="Participant" style="whiteSpace=wrap;html=1;align=center;" parent="1" vertex="1">
          <mxGeometry x="118.5" y="527" width="100" height="40" as="geometry" />
        </mxCell>
        <mxCell id="-sqe8g5yzWZDZ1aWcnI--106" style="edgeStyle=orthogonalEdgeStyle;rounded=0;orthogonalLoop=1;jettySize=auto;html=1;exitX=0.25;exitY=1;exitDx=0;exitDy=0;entryX=0.5;entryY=0;entryDx=0;entryDy=0;endArrow=none;endFill=0;" parent="1" source="-sqe8g5yzWZDZ1aWcnI--107" edge="1">
          <mxGeometry relative="1" as="geometry">
            <mxPoint x="444" y="717" as="targetPoint" />
          </mxGeometry>
        </mxCell>
        <mxCell id="tt112cmXK7fdP1q24PZr-23" style="edgeStyle=orthogonalEdgeStyle;rounded=0;orthogonalLoop=1;jettySize=auto;html=1;exitX=0;exitY=0.5;exitDx=0;exitDy=0;entryX=1;entryY=0.5;entryDx=0;entryDy=0;endArrow=none;endFill=0;" edge="1" parent="1" source="-sqe8g5yzWZDZ1aWcnI--107" target="tt112cmXK7fdP1q24PZr-22">
          <mxGeometry relative="1" as="geometry" />
        </mxCell>
        <mxCell id="-sqe8g5yzWZDZ1aWcnI--107" value="Administrator" style="whiteSpace=wrap;html=1;align=center;" parent="1" vertex="1">
          <mxGeometry x="446" y="527" width="100" height="40" as="geometry" />
        </mxCell>
        <mxCell id="-sqe8g5yzWZDZ1aWcnI--108" style="edgeStyle=orthogonalEdgeStyle;rounded=0;orthogonalLoop=1;jettySize=auto;html=1;exitX=0.5;exitY=1;exitDx=0;exitDy=0;entryX=0.5;entryY=0;entryDx=0;entryDy=0;endArrow=none;endFill=0;" parent="1" source="-sqe8g5yzWZDZ1aWcnI--110" target="-sqe8g5yzWZDZ1aWcnI--105" edge="1">
          <mxGeometry relative="1" as="geometry">
            <Array as="points">
              <mxPoint x="315" y="467" />
              <mxPoint x="223" y="467" />
            </Array>
          </mxGeometry>
        </mxCell>
        <mxCell id="-sqe8g5yzWZDZ1aWcnI--109" style="edgeStyle=orthogonalEdgeStyle;rounded=0;orthogonalLoop=1;jettySize=auto;html=1;exitX=0.5;exitY=1;exitDx=0;exitDy=0;endArrow=none;endFill=0;" parent="1" source="-sqe8g5yzWZDZ1aWcnI--110" target="-sqe8g5yzWZDZ1aWcnI--107" edge="1">
          <mxGeometry relative="1" as="geometry">
            <Array as="points">
              <mxPoint x="315" y="467" />
              <mxPoint x="407" y="467" />
            </Array>
          </mxGeometry>
        </mxCell>
        <mxCell id="-sqe8g5yzWZDZ1aWcnI--110" value="O" style="ellipse;whiteSpace=wrap;html=1;align=center;fontStyle=0;" parent="1" vertex="1">
          <mxGeometry x="297" y="357" width="40" height="30" as="geometry" />
        </mxCell>
        <mxCell id="-sqe8g5yzWZDZ1aWcnI--111" value="" style="shape=requiredInterface;html=1;verticalLabelPosition=bottom;sketch=0;rotation=90;" parent="1" vertex="1">
          <mxGeometry x="163.5" y="477" width="10" height="20" as="geometry" />
        </mxCell>
        <mxCell id="-sqe8g5yzWZDZ1aWcnI--112" value="" style="shape=requiredInterface;html=1;verticalLabelPosition=bottom;sketch=0;rotation=90;" parent="1" vertex="1">
          <mxGeometry x="491" y="477" width="10" height="20" as="geometry" />
        </mxCell>
        <mxCell id="-sqe8g5yzWZDZ1aWcnI--113" style="edgeStyle=orthogonalEdgeStyle;rounded=0;orthogonalLoop=1;jettySize=auto;html=1;exitX=0.5;exitY=0;exitDx=0;exitDy=0;entryX=0.75;entryY=1;entryDx=0;entryDy=0;endArrow=none;endFill=0;" parent="1" source="-sqe8g5yzWZDZ1aWcnI--114" target="-sqe8g5yzWZDZ1aWcnI--107" edge="1">
          <mxGeometry relative="1" as="geometry" />
        </mxCell>
        <mxCell id="-sqe8g5yzWZDZ1aWcnI--114" value="Management" style="shape=associativeEntity;whiteSpace=wrap;html=1;align=center;" parent="1" vertex="1">
          <mxGeometry x="494" y="717" width="110" height="40" as="geometry" />
        </mxCell>
        <mxCell id="tt112cmXK7fdP1q24PZr-20" style="edgeStyle=orthogonalEdgeStyle;rounded=0;orthogonalLoop=1;jettySize=auto;html=1;exitX=0.5;exitY=1;exitDx=0;exitDy=0;entryX=0.5;entryY=0;entryDx=0;entryDy=0;endArrow=none;endFill=0;" edge="1" parent="1" target="-sqe8g5yzWZDZ1aWcnI--35">
          <mxGeometry relative="1" as="geometry">
            <mxPoint x="444" y="757" as="sourcePoint" />
            <Array as="points">
              <mxPoint x="444" y="810" />
              <mxPoint x="516" y="810" />
            </Array>
          </mxGeometry>
        </mxCell>
        <mxCell id="-sqe8g5yzWZDZ1aWcnI--115" value="Create" style="shape=rhombus;perimeter=rhombusPerimeter;whiteSpace=wrap;html=1;align=center;" parent="1" vertex="1">
          <mxGeometry x="411" y="717" width="70" height="40" as="geometry" />
        </mxCell>
        <mxCell id="tt112cmXK7fdP1q24PZr-21" style="edgeStyle=orthogonalEdgeStyle;rounded=0;orthogonalLoop=1;jettySize=auto;html=1;exitX=0.5;exitY=1;exitDx=0;exitDy=0;entryX=0;entryY=0.5;entryDx=0;entryDy=0;endArrow=none;endFill=0;" edge="1" parent="1" source="-sqe8g5yzWZDZ1aWcnI--116" target="-sqe8g5yzWZDZ1aWcnI--35">
          <mxGeometry relative="1" as="geometry" />
        </mxCell>
        <mxCell id="-sqe8g5yzWZDZ1aWcnI--116" value="Participate" style="shape=associativeEntity;whiteSpace=wrap;html=1;align=center;" parent="1" vertex="1">
          <mxGeometry x="123.5" y="714" width="90" height="40" as="geometry" />
        </mxCell>
        <mxCell id="-sqe8g5yzWZDZ1aWcnI--117" value="N" style="text;html=1;align=center;verticalAlign=middle;resizable=0;points=[];autosize=1;strokeColor=none;fillColor=none;" parent="1" vertex="1">
          <mxGeometry x="135.5" y="565" width="30" height="30" as="geometry" />
        </mxCell>
        <mxCell id="-sqe8g5yzWZDZ1aWcnI--118" value="1" style="text;html=1;align=center;verticalAlign=middle;resizable=0;points=[];autosize=1;strokeColor=none;fillColor=none;" parent="1" vertex="1">
          <mxGeometry x="439" y="565" width="30" height="30" as="geometry" />
        </mxCell>
        <mxCell id="-sqe8g5yzWZDZ1aWcnI--119" value="N" style="text;html=1;align=center;verticalAlign=middle;resizable=0;points=[];autosize=1;strokeColor=none;fillColor=none;" parent="1" vertex="1">
          <mxGeometry x="529" y="565" width="30" height="30" as="geometry" />
        </mxCell>
        <mxCell id="-sqe8g5yzWZDZ1aWcnI--120" style="edgeStyle=orthogonalEdgeStyle;rounded=0;orthogonalLoop=1;jettySize=auto;html=1;exitX=0;exitY=0.5;exitDx=0;exitDy=0;entryX=1;entryY=0.5;entryDx=0;entryDy=0;endArrow=none;endFill=0;" parent="1" source="-sqe8g5yzWZDZ1aWcnI--121" target="-sqe8g5yzWZDZ1aWcnI--114" edge="1">
          <mxGeometry relative="1" as="geometry" />
        </mxCell>
        <mxCell id="-sqe8g5yzWZDZ1aWcnI--121" value="ID" style="ellipse;whiteSpace=wrap;html=1;align=center;fontStyle=4;" parent="1" vertex="1">
          <mxGeometry x="644" y="702" width="40" height="18" as="geometry" />
        </mxCell>
        <mxCell id="-sqe8g5yzWZDZ1aWcnI--122" style="edgeStyle=orthogonalEdgeStyle;rounded=0;orthogonalLoop=1;jettySize=auto;html=1;exitX=1;exitY=0.5;exitDx=0;exitDy=0;entryX=0.25;entryY=0;entryDx=0;entryDy=0;endArrow=none;endFill=0;" parent="1" source="-sqe8g5yzWZDZ1aWcnI--123" target="-sqe8g5yzWZDZ1aWcnI--116" edge="1">
          <mxGeometry relative="1" as="geometry" />
        </mxCell>
        <mxCell id="-sqe8g5yzWZDZ1aWcnI--123" value="ID" style="ellipse;whiteSpace=wrap;html=1;align=center;fontStyle=4;" parent="1" vertex="1">
          <mxGeometry x="82" y="677" width="35" height="20" as="geometry" />
        </mxCell>
        <mxCell id="-sqe8g5yzWZDZ1aWcnI--124" style="edgeStyle=orthogonalEdgeStyle;rounded=0;orthogonalLoop=1;jettySize=auto;html=1;exitX=0;exitY=0.5;exitDx=0;exitDy=0;entryX=1;entryY=0.5;entryDx=0;entryDy=0;endArrow=none;endFill=0;" parent="1" source="-sqe8g5yzWZDZ1aWcnI--125" target="-sqe8g5yzWZDZ1aWcnI--114" edge="1">
          <mxGeometry relative="1" as="geometry" />
        </mxCell>
        <mxCell id="-sqe8g5yzWZDZ1aWcnI--125" value="Date" style="ellipse;whiteSpace=wrap;html=1;align=center;" parent="1" vertex="1">
          <mxGeometry x="644" y="726" width="50" height="22" as="geometry" />
        </mxCell>
        <mxCell id="-sqe8g5yzWZDZ1aWcnI--128" value="PK" style="text;html=1;align=center;verticalAlign=middle;resizable=0;points=[];autosize=1;strokeColor=none;fillColor=none;" parent="1" vertex="1">
          <mxGeometry x="674" y="696" width="40" height="30" as="geometry" />
        </mxCell>
        <mxCell id="-sqe8g5yzWZDZ1aWcnI--129" value="PK" style="text;html=1;align=center;verticalAlign=middle;resizable=0;points=[];autosize=1;strokeColor=none;fillColor=none;" parent="1" vertex="1">
          <mxGeometry x="42" y="672" width="40" height="30" as="geometry" />
        </mxCell>
        <mxCell id="-sqe8g5yzWZDZ1aWcnI--131" value="M" style="text;html=1;align=center;verticalAlign=middle;resizable=0;points=[];autosize=1;strokeColor=none;fillColor=none;" parent="1" vertex="1">
          <mxGeometry x="694" y="722" width="30" height="30" as="geometry" />
        </mxCell>
        <mxCell id="-sqe8g5yzWZDZ1aWcnI--132" style="edgeStyle=orthogonalEdgeStyle;rounded=0;orthogonalLoop=1;jettySize=auto;html=1;endArrow=none;endFill=0;" parent="1" source="-sqe8g5yzWZDZ1aWcnI--110" edge="1">
          <mxGeometry relative="1" as="geometry">
            <mxPoint x="316" y="280" as="targetPoint" />
          </mxGeometry>
        </mxCell>
        <mxCell id="-sqe8g5yzWZDZ1aWcnI--134" style="edgeStyle=orthogonalEdgeStyle;rounded=0;orthogonalLoop=1;jettySize=auto;html=1;entryX=0.826;entryY=0.038;entryDx=0;entryDy=0;entryPerimeter=0;endArrow=none;endFill=0;" parent="1" source="-sqe8g5yzWZDZ1aWcnI--114" target="-sqe8g5yzWZDZ1aWcnI--35" edge="1">
          <mxGeometry relative="1" as="geometry" />
        </mxCell>
        <mxCell id="-sqe8g5yzWZDZ1aWcnI--138" value="N" style="text;html=1;align=center;verticalAlign=middle;resizable=0;points=[];autosize=1;strokeColor=none;fillColor=none;" parent="1" vertex="1">
          <mxGeometry x="546" y="830" width="30" height="30" as="geometry" />
        </mxCell>
        <mxCell id="-sqe8g5yzWZDZ1aWcnI--140" value="N" style="text;html=1;align=center;verticalAlign=middle;resizable=0;points=[];autosize=1;strokeColor=none;fillColor=none;" parent="1" vertex="1">
          <mxGeometry x="509" y="835" width="30" height="30" as="geometry" />
        </mxCell>
        <mxCell id="-sqe8g5yzWZDZ1aWcnI--141" value="N" style="text;html=1;align=center;verticalAlign=middle;resizable=0;points=[];autosize=1;strokeColor=none;fillColor=none;" parent="1" vertex="1">
          <mxGeometry x="431" y="880" width="30" height="30" as="geometry" />
        </mxCell>
        <mxCell id="tt112cmXK7fdP1q24PZr-1" value="M" style="text;html=1;align=center;verticalAlign=middle;resizable=0;points=[];autosize=1;strokeColor=none;fillColor=none;" vertex="1" parent="1">
          <mxGeometry x="712" y="1210" width="30" height="30" as="geometry" />
        </mxCell>
        <mxCell id="tt112cmXK7fdP1q24PZr-3" style="edgeStyle=orthogonalEdgeStyle;rounded=0;orthogonalLoop=1;jettySize=auto;html=1;exitX=1;exitY=0.5;exitDx=0;exitDy=0;entryX=0;entryY=0.5;entryDx=0;entryDy=0;endArrow=none;endFill=0;" edge="1" parent="1" source="tt112cmXK7fdP1q24PZr-2" target="-sqe8g5yzWZDZ1aWcnI--3">
          <mxGeometry relative="1" as="geometry" />
        </mxCell>
        <mxCell id="tt112cmXK7fdP1q24PZr-2" value="Photo" style="ellipse;whiteSpace=wrap;html=1;align=center;" vertex="1" parent="1">
          <mxGeometry x="157" y="302" width="63" height="18" as="geometry" />
        </mxCell>
        <mxCell id="tt112cmXK7fdP1q24PZr-5" style="edgeStyle=orthogonalEdgeStyle;rounded=0;orthogonalLoop=1;jettySize=auto;html=1;exitX=1;exitY=0.5;exitDx=0;exitDy=0;entryX=0;entryY=0.5;entryDx=0;entryDy=0;endArrow=none;endFill=0;" edge="1" parent="1" source="tt112cmXK7fdP1q24PZr-4" target="-sqe8g5yzWZDZ1aWcnI--3">
          <mxGeometry relative="1" as="geometry" />
        </mxCell>
        <mxCell id="tt112cmXK7fdP1q24PZr-4" value="Nickname" style="ellipse;whiteSpace=wrap;html=1;align=center;" vertex="1" parent="1">
          <mxGeometry x="142" y="330" width="78" height="20" as="geometry" />
        </mxCell>
        <mxCell id="tt112cmXK7fdP1q24PZr-6" value="M" style="text;html=1;align=center;verticalAlign=middle;resizable=0;points=[];autosize=1;strokeColor=none;fillColor=none;" vertex="1" parent="1">
          <mxGeometry x="117" y="325" width="30" height="30" as="geometry" />
        </mxCell>
        <mxCell id="tt112cmXK7fdP1q24PZr-9" style="edgeStyle=orthogonalEdgeStyle;rounded=0;orthogonalLoop=1;jettySize=auto;html=1;exitX=0;exitY=0.5;exitDx=0;exitDy=0;entryX=1;entryY=0.5;entryDx=0;entryDy=0;endArrow=none;endFill=0;" edge="1" parent="1" source="tt112cmXK7fdP1q24PZr-8" target="-sqe8g5yzWZDZ1aWcnI--35">
          <mxGeometry relative="1" as="geometry" />
        </mxCell>
        <mxCell id="tt112cmXK7fdP1q24PZr-8" value="Status" style="ellipse;whiteSpace=wrap;html=1;align=center;" vertex="1" parent="1">
          <mxGeometry x="632" y="1290" width="80" height="30" as="geometry" />
        </mxCell>
        <mxCell id="tt112cmXK7fdP1q24PZr-10" value="M" style="text;html=1;align=center;verticalAlign=middle;resizable=0;points=[];autosize=1;strokeColor=none;fillColor=none;" vertex="1" parent="1">
          <mxGeometry x="709" y="1290" width="30" height="30" as="geometry" />
        </mxCell>
        <mxCell id="tt112cmXK7fdP1q24PZr-11" value="" style="strokeWidth=2;html=1;shape=mxgraph.flowchart.annotation_1;align=left;pointerEvents=1;rotation=-180;" vertex="1" parent="1">
          <mxGeometry x="722" y="900" width="5" height="70" as="geometry" />
        </mxCell>
        <mxCell id="tt112cmXK7fdP1q24PZr-12" value="M D UK1" style="text;html=1;align=center;verticalAlign=middle;resizable=0;points=[];autosize=1;strokeColor=none;fillColor=none;" vertex="1" parent="1">
          <mxGeometry x="727" y="920" width="70" height="30" as="geometry" />
        </mxCell>
        <mxCell id="tt112cmXK7fdP1q24PZr-16" style="edgeStyle=orthogonalEdgeStyle;rounded=0;orthogonalLoop=1;jettySize=auto;html=1;exitX=0;exitY=0.5;exitDx=0;exitDy=0;entryX=1;entryY=0.5;entryDx=0;entryDy=0;endArrow=none;endFill=0;" edge="1" parent="1" source="tt112cmXK7fdP1q24PZr-15" target="-sqe8g5yzWZDZ1aWcnI--35">
          <mxGeometry relative="1" as="geometry" />
        </mxCell>
        <mxCell id="tt112cmXK7fdP1q24PZr-15" value="Created at" style="ellipse;whiteSpace=wrap;html=1;align=center;" vertex="1" parent="1">
          <mxGeometry x="632.5" y="1330" width="76.5" height="30" as="geometry" />
        </mxCell>
        <mxCell id="tt112cmXK7fdP1q24PZr-17" value="M" style="text;html=1;align=center;verticalAlign=middle;resizable=0;points=[];autosize=1;strokeColor=none;fillColor=none;" vertex="1" parent="1">
          <mxGeometry x="709" y="1330" width="30" height="30" as="geometry" />
        </mxCell>
        <mxCell id="tt112cmXK7fdP1q24PZr-18" value="M D UK1" style="text;html=1;align=center;verticalAlign=middle;resizable=0;points=[];autosize=1;strokeColor=none;fillColor=none;" vertex="1" parent="1">
          <mxGeometry x="87" y="240" width="70" height="30" as="geometry" />
        </mxCell>
        <mxCell id="tt112cmXK7fdP1q24PZr-24" style="edgeStyle=orthogonalEdgeStyle;rounded=0;orthogonalLoop=1;jettySize=auto;html=1;exitX=0;exitY=0.5;exitDx=0;exitDy=0;entryX=1;entryY=0.5;entryDx=0;entryDy=0;endArrow=none;endFill=0;" edge="1" parent="1" source="tt112cmXK7fdP1q24PZr-22" target="-sqe8g5yzWZDZ1aWcnI--105">
          <mxGeometry relative="1" as="geometry" />
        </mxCell>
        <mxCell id="tt112cmXK7fdP1q24PZr-28" style="edgeStyle=orthogonalEdgeStyle;rounded=0;orthogonalLoop=1;jettySize=auto;html=1;exitX=0.5;exitY=1;exitDx=0;exitDy=0;entryX=0;entryY=0;entryDx=0;entryDy=0;endArrow=none;endFill=0;" edge="1" parent="1" source="tt112cmXK7fdP1q24PZr-22" target="-sqe8g5yzWZDZ1aWcnI--35">
          <mxGeometry relative="1" as="geometry">
            <Array as="points">
              <mxPoint x="337" y="860" />
            </Array>
          </mxGeometry>
        </mxCell>
        <mxCell id="tt112cmXK7fdP1q24PZr-22" value="Invite" style="shape=rhombus;perimeter=rhombusPerimeter;whiteSpace=wrap;html=1;align=center;" vertex="1" parent="1">
          <mxGeometry x="302" y="527" width="70" height="40" as="geometry" />
        </mxCell>
        <mxCell id="tt112cmXK7fdP1q24PZr-25" value="N" style="text;html=1;align=center;verticalAlign=middle;resizable=0;points=[];autosize=1;strokeColor=none;fillColor=none;" vertex="1" parent="1">
          <mxGeometry x="218.5" y="520" width="30" height="30" as="geometry" />
        </mxCell>
        <mxCell id="tt112cmXK7fdP1q24PZr-27" value="1" style="text;html=1;align=center;verticalAlign=middle;resizable=0;points=[];autosize=1;strokeColor=none;fillColor=none;" vertex="1" parent="1">
          <mxGeometry x="415" y="518" width="30" height="30" as="geometry" />
        </mxCell>
        <mxCell id="tt112cmXK7fdP1q24PZr-29" value="1" style="text;html=1;align=center;verticalAlign=middle;resizable=0;points=[];autosize=1;strokeColor=none;fillColor=none;" vertex="1" parent="1">
          <mxGeometry x="445" y="838" width="30" height="30" as="geometry" />
        </mxCell>
        <mxCell id="tt112cmXK7fdP1q24PZr-35" style="edgeStyle=orthogonalEdgeStyle;rounded=0;orthogonalLoop=1;jettySize=auto;html=1;exitX=0;exitY=0.5;exitDx=0;exitDy=0;entryX=1;entryY=0.5;entryDx=0;entryDy=0;endArrow=none;endFill=0;" edge="1" parent="1" source="tt112cmXK7fdP1q24PZr-32" target="tt112cmXK7fdP1q24PZr-33">
          <mxGeometry relative="1" as="geometry" />
        </mxCell>
        <mxCell id="tt112cmXK7fdP1q24PZr-32" value="Generate" style="shape=rhombus;perimeter=rhombusPerimeter;whiteSpace=wrap;html=1;align=center;" vertex="1" parent="1">
          <mxGeometry x="240" y="970" width="81.5" height="40" as="geometry" />
        </mxCell>
        <mxCell id="tt112cmXK7fdP1q24PZr-33" value="Expenses" style="whiteSpace=wrap;html=1;align=center;" vertex="1" parent="1">
          <mxGeometry x="23.5" y="970" width="100" height="40" as="geometry" />
        </mxCell>
        <mxCell id="tt112cmXK7fdP1q24PZr-36" value="N" style="text;html=1;align=center;verticalAlign=middle;resizable=0;points=[];autosize=1;strokeColor=none;fillColor=none;" vertex="1" parent="1">
          <mxGeometry x="125" y="988" width="30" height="30" as="geometry" />
        </mxCell>
        <mxCell id="tt112cmXK7fdP1q24PZr-37" value="1" style="text;html=1;align=center;verticalAlign=middle;resizable=0;points=[];autosize=1;strokeColor=none;fillColor=none;" vertex="1" parent="1">
          <mxGeometry x="515" y="898" width="30" height="30" as="geometry" />
        </mxCell>
        <mxCell id="tt112cmXK7fdP1q24PZr-49" style="edgeStyle=orthogonalEdgeStyle;rounded=0;orthogonalLoop=1;jettySize=auto;html=1;exitX=1;exitY=0.5;exitDx=0;exitDy=0;entryX=0;entryY=0.5;entryDx=0;entryDy=0;endArrow=none;endFill=0;" edge="1" parent="1" source="tt112cmXK7fdP1q24PZr-38" target="tt112cmXK7fdP1q24PZr-33">
          <mxGeometry relative="1" as="geometry" />
        </mxCell>
        <mxCell id="tt112cmXK7fdP1q24PZr-38" value="ID" style="ellipse;whiteSpace=wrap;html=1;align=center;fontStyle=4;" vertex="1" parent="1">
          <mxGeometry x="-80" y="940" width="35" height="20" as="geometry" />
        </mxCell>
        <mxCell id="tt112cmXK7fdP1q24PZr-47" style="edgeStyle=orthogonalEdgeStyle;rounded=0;orthogonalLoop=1;jettySize=auto;html=1;exitX=1;exitY=0.5;exitDx=0;exitDy=0;entryX=0;entryY=0.5;entryDx=0;entryDy=0;endArrow=none;endFill=0;" edge="1" parent="1" source="tt112cmXK7fdP1q24PZr-40" target="tt112cmXK7fdP1q24PZr-33">
          <mxGeometry relative="1" as="geometry" />
        </mxCell>
        <mxCell id="tt112cmXK7fdP1q24PZr-40" value="Value" style="ellipse;whiteSpace=wrap;html=1;align=center;fontStyle=0" vertex="1" parent="1">
          <mxGeometry x="-125" y="975" width="80" height="30" as="geometry" />
        </mxCell>
        <mxCell id="tt112cmXK7fdP1q24PZr-48" style="edgeStyle=orthogonalEdgeStyle;rounded=0;orthogonalLoop=1;jettySize=auto;html=1;exitX=1;exitY=0.5;exitDx=0;exitDy=0;entryX=0;entryY=0.5;entryDx=0;entryDy=0;endArrow=none;endFill=0;" edge="1" parent="1" source="tt112cmXK7fdP1q24PZr-41" target="tt112cmXK7fdP1q24PZr-33">
          <mxGeometry relative="1" as="geometry" />
        </mxCell>
        <mxCell id="tt112cmXK7fdP1q24PZr-41" value="Description" style="ellipse;whiteSpace=wrap;html=1;align=center;fontStyle=0" vertex="1" parent="1">
          <mxGeometry x="-125" y="1018" width="80" height="30" as="geometry" />
        </mxCell>
        <mxCell id="tt112cmXK7fdP1q24PZr-42" value="M" style="text;html=1;align=center;verticalAlign=middle;resizable=0;points=[];autosize=1;strokeColor=none;fillColor=none;" vertex="1" parent="1">
          <mxGeometry x="-155" y="965" width="30" height="30" as="geometry" />
        </mxCell>
        <mxCell id="tt112cmXK7fdP1q24PZr-45" value="M D UK1" style="text;html=1;align=center;verticalAlign=middle;resizable=0;points=[];autosize=1;strokeColor=none;fillColor=none;" vertex="1" parent="1">
          <mxGeometry x="-195" y="1018" width="70" height="30" as="geometry" />
        </mxCell>
        <mxCell id="tt112cmXK7fdP1q24PZr-46" value="PK" style="text;html=1;align=center;verticalAlign=middle;resizable=0;points=[];autosize=1;strokeColor=none;fillColor=none;" vertex="1" parent="1">
          <mxGeometry x="-120" y="935" width="40" height="30" as="geometry" />
        </mxCell>
      </root>
    </mxGraphModel>
  </diagram>
</mxfile>
